<svg width="20" height="20" viewBox="0 0 20 20" fill="none" xmlns="http://www.w3.org/2000/svg">
<path d="M17.5 17.5835C17.9142 17.5835 18.25 17.9193 18.25 18.3335C18.2498 18.7476 17.9141 19.0835 17.5 19.0835H2.5C2.0859 19.0835 1.75018 18.7476 1.75 18.3335C1.75 17.9193 2.08579 17.5835 2.5 17.5835H17.5ZM16.75 6.6665C16.75 6.16024 16.3393 5.74951 15.833 5.74951H4.16699C3.66073 5.74951 3.25 6.16024 3.25 6.6665V13.3335C3.25018 13.8396 3.66084 14.2495 4.16699 14.2495H15.833C16.3392 14.2495 16.7498 13.8396 16.75 13.3335V6.6665ZM17.5 0.916504C17.9142 0.916504 18.25 1.25229 18.25 1.6665C18.25 2.08072 17.9142 2.4165 17.5 2.4165H2.5C2.08579 2.4165 1.75 2.08072 1.75 1.6665C1.75 1.25229 2.08579 0.916504 2.5 0.916504H17.5ZM18.25 13.3335C18.2498 14.668 17.1676 15.7495 15.833 15.7495H4.16699C2.83241 15.7495 1.75018 14.668 1.75 13.3335V6.6665C1.75 5.33182 2.8323 4.24951 4.16699 4.24951H15.833C17.1677 4.24951 18.25 5.33182 18.25 6.6665V13.3335Z" fill="#192334"/>
</svg>
